<svg width="139" height="24" fill="none" xmlns="http://www.w3.org/2000/svg"><path d="M29.1 2.64V20.1h3.01V5h5.36v15.1h3V2.64H29.12zm16.58 4.82h-2.73v16.29h2.95v-5.13a3.62 3.62 0 003.1 1.74c2.88 0 4.87-2.34 4.87-6.59 0-4.22-1.94-6.56-4.72-6.56-1.39 0-2.53.66-3.32 1.89l-.15-1.64zM48.26 18c-1.56 0-2.36-1.28-2.36-4.2 0-2.93.85-4.22 2.5-4.22 1.62 0 2.42 1.29 2.42 4.2 0 2.94-.85 4.22-2.56 4.22zm16.79-6.52c0-3.06-1.54-4.22-4.66-4.22-1.96 0-3.5.63-4.4 1.16v2.49c.8-.6 2.54-1.26 4.05-1.26 1.41 0 2.06.5 2.06 1.86v.7h-.47c-4.52 0-6.53 1.51-6.53 4.07 0 2.57 1.54 4 3.82 4 1.74 0 2.48-.58 3.06-1.18h.12c.02.33.12.75.22 1h2.88a32.2 32.2 0 01-.15-3.09v-5.53zm-2.95 5.6c-.37.56-1.07 1.01-2.11 1.01-1.24 0-1.86-.7-1.86-1.78 0-1.43 1.02-1.96 3.55-1.96h.42v2.74zm12.65 3.02h3.35l-4.74-6.7 4.17-5.94h-2.98l-4.17 5.93V7.46h-2.95V20.1h2.95V14l4.37 6.1zM88 9.83V7.46h-9.9v2.37h3.47V20.1h2.96V9.83H88zm1.75-2.37V20.1h2.63l4.52-7.81v7.81h2.85V7.46h-2.63l-4.52 7.82V7.46h-2.85zm19.8 12.64h3.35l-4.74-6.7 4.17-5.94h-2.98l-4.17 5.93V7.46h-2.95V20.1h2.95V14l4.37 6.1zm5.95 3.9c2.76 0 3.77-1.99 4.62-4.57l3.9-11.97h-2.86l-2.75 9.5-2.76-9.5h-3.1l4.3 13.2c-.33.6-.8.98-1.62.98-.55 0-1.02-.18-1.34-.5v2.43s.44.43 1.61.43zm20.28-3.9h2.88l-.05-12.64h-4.04l-2.71 8.42-2.43-8.42h-4.3V20.1h2.51v-9.44l2.7 9.44h2.41l3.03-9.44v9.44z" fill="#1E1E1E"/><circle cx="11.56" cy="11.56" fill="#FC3F1D" r="11.56"/><path d="M13.37 18.78h2.52V4.33h-3.67c-3.68 0-5.62 1.9-5.62 4.68 0 2.4 1.26 3.76 3.48 5.24l1.35.89-1.74-1.45-3.43 5.09H9l3.67-5.48-1.28-.84c-1.54-1.04-2.3-1.85-2.3-3.6 0-1.54 1.1-2.58 3.15-2.58h1.13v12.5h.01z" fill="#fff"/></svg>